# xmcd CD database file
#
# Track frame offsets:
#	150
#	19857
#	34257
#	54305
#	70306
#	90014
#	110146
#	128514
#	151398
#	169931
#	189750
#	209320
#	227660
#	247492
#	266666
#
# Disc length: 3803 seconds
#
# Revision: 0
# Processed by: cddbd v1.5.2PL0 Copyright (c) Steve Scherf et al.
# Submitted via: CDex 1.70beta2
#
DISCID=c90ed90f
DTITLE=Various Merengue - 30 Merengues Pegaditos - Lo Nuevo y Lo Mejor 2007 - CD2
DYEAR=1900
DGENRE=Merengue
TTITLE0=Kinito Mendez - Hony Tu Si Jony
TTITLE1=Sabor Latino - No Te Preocupes Por Mi
TTITLE2=Banda Gorda - Tu Muere Aqui
TTITLE3=Team Underground - El Brujo
TTITLE4=Elvis Crespo - Luna Llena
TTITLE5=Charlie Rodriguez - El Colorado
TTITLE6=Sabor Latino - La Camisa Negra
TTITLE7=Los Sabrosos Del Merengue - Fiera Callada
TTITLE8=Wilfrido Wargas - Abusadora
TTITLE9=El Gringo de la Bachata - Ya Se Va
TTITLE10=Dejame Tocar Tu Corazon - Wilmer B
TTITLE11=Luigi - Si Los Vecinos Oye
TTITLE12=El Equipo Del Merengue - Mi Vida Eres Tu
TTITLE13=Latin Sound - lora Tu
TTITLE14=El Equipo Del Merengue - Guitarras En Mi Corazon
EXTD=
EXTT0=
EXTT1=
EXTT2=
EXTT3=
EXTT4=
EXTT5=
EXTT6=
EXTT7=
EXTT8=
EXTT9=
EXTT10=
EXTT11=
EXTT12=
EXTT13=
EXTT14=
PLAYORDER=
